<svg xmlns="http://www.w3.org/2000/svg" xmlns:xlink="http://www.w3.org/1999/xlink" width="725" zoomAndPan="magnify" viewBox="0 0 543.75 146.249994" height="195" preserveAspectRatio="xMidYMid meet" version="1.0"><defs><clipPath id="f7486ba9b7"><path d="M 28.644531 26 L 131.617188 26 L 131.617188 119 L 28.644531 119 Z M 28.644531 26 " clip-rule="nonzero"/></clipPath><clipPath id="07f878eeed"><path d="M 166.28125 39.5 L 281.191406 39.5 L 281.191406 108.894531 L 166.28125 108.894531 Z M 166.28125 39.5 " clip-rule="nonzero"/></clipPath><clipPath id="fb71589a5c"><path d="M 335 27.742188 L 379 27.742188 L 379 120.269531 L 335 120.269531 Z M 335 27.742188 " clip-rule="nonzero"/></clipPath><clipPath id="b979938cd5"><path d="M 432.550781 33.230469 L 494 33.230469 L 494 95 L 432.550781 95 Z M 432.550781 33.230469 " clip-rule="nonzero"/></clipPath><clipPath id="bae305465a"><path d="M 473.308594 33.21875 C 452.480469 33.21875 453.78125 42.300781 453.78125 42.300781 L 453.804688 51.710938 L 473.675781 51.710938 L 473.675781 54.535156 L 445.910156 54.535156 C 445.910156 54.535156 432.582031 53.015625 432.582031 74.144531 C 432.582031 95.277344 444.214844 94.527344 444.214844 94.527344 L 451.15625 94.527344 L 451.15625 84.722656 C 451.15625 84.722656 450.78125 73.023438 462.601562 73.023438 L 482.316406 73.023438 C 482.316406 73.023438 493.386719 73.207031 493.386719 62.261719 L 493.386719 44.171875 C 493.386719 44.171875 495.070312 33.21875 473.308594 33.21875 Z M 462.347656 39.546875 C 464.324219 39.546875 465.921875 41.15625 465.921875 43.140625 C 465.921875 45.132812 464.324219 46.738281 462.347656 46.738281 C 460.371094 46.738281 458.773438 45.132812 458.773438 43.140625 C 458.773438 41.15625 460.371094 39.546875 462.347656 39.546875 Z M 462.347656 39.546875 " clip-rule="nonzero"/></clipPath><linearGradient x1="0.00416842" gradientTransform="matrix(60.835011, 0, 0, 61.311609, 432.583527, 33.22033)" y1="-0.00405723" x2="1.027757" gradientUnits="userSpaceOnUse" y2="1.01158" id="7ae547d747"><stop stop-opacity="1" stop-color="rgb(21.998596%, 49.398804%, 72.198486%)" offset="0"/><stop stop-opacity="1" stop-color="rgb(21.99707%, 49.383545%, 72.171021%)" offset="0.125"/><stop stop-opacity="1" stop-color="rgb(21.986389%, 49.269104%, 71.974182%)" offset="0.140625"/><stop stop-opacity="1" stop-color="rgb(21.966553%, 49.072266%, 71.633911%)" offset="0.15625"/><stop stop-opacity="1" stop-color="rgb(21.948242%, 48.875427%, 71.29364%)" offset="0.171875"/><stop stop-opacity="1" stop-color="rgb(21.928406%, 48.678589%, 70.953369%)" offset="0.1875"/><stop stop-opacity="1" stop-color="rgb(21.910095%, 48.48175%, 70.611572%)" offset="0.203125"/><stop stop-opacity="1" stop-color="rgb(21.890259%, 48.286438%, 70.271301%)" offset="0.21875"/><stop stop-opacity="1" stop-color="rgb(21.870422%, 48.0896%, 69.93103%)" offset="0.234375"/><stop stop-opacity="1" stop-color="rgb(21.852112%, 47.892761%, 69.590759%)" offset="0.25"/><stop stop-opacity="1" stop-color="rgb(21.832275%, 47.695923%, 69.250488%)" offset="0.265625"/><stop stop-opacity="1" stop-color="rgb(21.813965%, 47.499084%, 68.908691%)" offset="0.28125"/><stop stop-opacity="1" stop-color="rgb(21.794128%, 47.302246%, 68.56842%)" offset="0.296875"/><stop stop-opacity="1" stop-color="rgb(21.775818%, 47.105408%, 68.228149%)" offset="0.3125"/><stop stop-opacity="1" stop-color="rgb(21.755981%, 46.908569%, 67.887878%)" offset="0.328125"/><stop stop-opacity="1" stop-color="rgb(21.736145%, 46.711731%, 67.546082%)" offset="0.34375"/><stop stop-opacity="1" stop-color="rgb(21.717834%, 46.514893%, 67.205811%)" offset="0.359375"/><stop stop-opacity="1" stop-color="rgb(21.697998%, 46.31958%, 66.86554%)" offset="0.375"/><stop stop-opacity="1" stop-color="rgb(21.679688%, 46.122742%, 66.525269%)" offset="0.390625"/><stop stop-opacity="1" stop-color="rgb(21.659851%, 45.925903%, 66.184998%)" offset="0.40625"/><stop stop-opacity="1" stop-color="rgb(21.641541%, 45.729065%, 65.843201%)" offset="0.421875"/><stop stop-opacity="1" stop-color="rgb(21.621704%, 45.532227%, 65.50293%)" offset="0.4375"/><stop stop-opacity="1" stop-color="rgb(21.601868%, 45.335388%, 65.162659%)" offset="0.453125"/><stop stop-opacity="1" stop-color="rgb(21.583557%, 45.13855%, 64.822388%)" offset="0.46875"/><stop stop-opacity="1" stop-color="rgb(21.563721%, 44.941711%, 64.482117%)" offset="0.484375"/><stop stop-opacity="1" stop-color="rgb(21.54541%, 44.744873%, 64.14032%)" offset="0.494335"/><stop stop-opacity="1" stop-color="rgb(21.536255%, 44.647217%, 63.970947%)" offset="0.5"/><stop stop-opacity="1" stop-color="rgb(21.525574%, 44.548035%, 63.800049%)" offset="0.505665"/><stop stop-opacity="1" stop-color="rgb(21.516418%, 44.450378%, 63.630676%)" offset="0.515625"/><stop stop-opacity="1" stop-color="rgb(21.505737%, 44.352722%, 63.459778%)" offset="0.53125"/><stop stop-opacity="1" stop-color="rgb(21.487427%, 44.155884%, 63.119507%)" offset="0.546875"/><stop stop-opacity="1" stop-color="rgb(21.46759%, 43.959045%, 62.77771%)" offset="0.5625"/><stop stop-opacity="1" stop-color="rgb(21.44928%, 43.762207%, 62.437439%)" offset="0.578125"/><stop stop-opacity="1" stop-color="rgb(21.429443%, 43.565369%, 62.097168%)" offset="0.59375"/><stop stop-opacity="1" stop-color="rgb(21.411133%, 43.36853%, 61.756897%)" offset="0.609375"/><stop stop-opacity="1" stop-color="rgb(21.391296%, 43.171692%, 61.416626%)" offset="0.625"/><stop stop-opacity="1" stop-color="rgb(21.37146%, 42.974854%, 61.074829%)" offset="0.640625"/><stop stop-opacity="1" stop-color="rgb(21.353149%, 42.778015%, 60.734558%)" offset="0.65625"/><stop stop-opacity="1" stop-color="rgb(21.333313%, 42.582703%, 60.394287%)" offset="0.671875"/><stop stop-opacity="1" stop-color="rgb(21.315002%, 42.385864%, 60.054016%)" offset="0.6875"/><stop stop-opacity="1" stop-color="rgb(21.295166%, 42.189026%, 59.713745%)" offset="0.703125"/><stop stop-opacity="1" stop-color="rgb(21.276855%, 41.992188%, 59.371948%)" offset="0.71875"/><stop stop-opacity="1" stop-color="rgb(21.257019%, 41.795349%, 59.031677%)" offset="0.734375"/><stop stop-opacity="1" stop-color="rgb(21.237183%, 41.598511%, 58.691406%)" offset="0.75"/><stop stop-opacity="1" stop-color="rgb(21.218872%, 41.401672%, 58.351135%)" offset="0.765625"/><stop stop-opacity="1" stop-color="rgb(21.203613%, 41.25061%, 58.09021%)" offset="0.78125"/><stop stop-opacity="1" stop-color="rgb(21.199036%, 41.19873%, 57.998657%)" offset="0.8125"/><stop stop-opacity="1" stop-color="rgb(21.199036%, 41.19873%, 57.998657%)" offset="0.875"/><stop stop-opacity="1" stop-color="rgb(21.199036%, 41.19873%, 57.998657%)" offset="1"/></linearGradient><clipPath id="7234705ac8"><path d="M 453 53 L 514.628906 53 L 514.628906 115.308594 L 453 115.308594 Z M 453 53 " clip-rule="nonzero"/></clipPath><clipPath id="fdbb4761ea"><path d="M 473.898438 115.285156 C 494.726562 115.285156 493.421875 106.203125 493.421875 106.203125 L 493.402344 96.792969 L 473.527344 96.792969 L 473.527344 93.96875 L 501.292969 93.96875 C 501.292969 93.96875 514.621094 95.488281 514.621094 74.359375 C 514.621094 53.226562 502.988281 53.976562 502.988281 53.976562 L 496.046875 53.976562 L 496.046875 63.78125 C 496.046875 63.78125 496.421875 75.480469 484.601562 75.480469 L 464.886719 75.480469 C 464.886719 75.480469 453.816406 75.300781 453.816406 86.242188 L 453.816406 104.335938 C 453.816406 104.335938 452.132812 115.285156 473.898438 115.285156 Z M 484.855469 108.957031 C 482.878906 108.957031 481.28125 107.347656 481.28125 105.363281 C 481.28125 103.371094 482.878906 101.765625 484.855469 101.765625 C 486.835938 101.765625 488.433594 103.371094 488.433594 105.363281 C 488.433594 107.347656 486.835938 108.957031 484.855469 108.957031 Z M 484.855469 108.957031 " clip-rule="nonzero"/></clipPath><linearGradient x1="-0.0326456" gradientTransform="matrix(60.836856, 0, 0, 61.31192, 453.78508, 53.973833)" y1="-0.00636615" x2="1.013977" gradientUnits="userSpaceOnUse" y2="0.985247" id="bbd5d8da54"><stop stop-opacity="1" stop-color="rgb(100%, 87.799072%, 32.199097%)" offset="0"/><stop stop-opacity="1" stop-color="rgb(100%, 87.799072%, 32.199097%)" offset="0.125"/><stop stop-opacity="1" stop-color="rgb(100%, 87.799072%, 32.199097%)" offset="0.1875"/><stop stop-opacity="1" stop-color="rgb(100%, 87.759399%, 32.15332%)" offset="0.21875"/><stop stop-opacity="1" stop-color="rgb(100%, 87.590027%, 31.959534%)" offset="0.234375"/><stop stop-opacity="1" stop-color="rgb(100%, 87.332153%, 31.661987%)" offset="0.25"/><stop stop-opacity="1" stop-color="rgb(100%, 87.07428%, 31.365967%)" offset="0.265625"/><stop stop-opacity="1" stop-color="rgb(100%, 86.816406%, 31.06842%)" offset="0.28125"/><stop stop-opacity="1" stop-color="rgb(100%, 86.558533%, 30.7724%)" offset="0.296875"/><stop stop-opacity="1" stop-color="rgb(100%, 86.300659%, 30.474854%)" offset="0.3125"/><stop stop-opacity="1" stop-color="rgb(100%, 86.042786%, 30.177307%)" offset="0.328125"/><stop stop-opacity="1" stop-color="rgb(100%, 85.783386%, 29.881287%)" offset="0.34375"/><stop stop-opacity="1" stop-color="rgb(100%, 85.525513%, 29.58374%)" offset="0.359375"/><stop stop-opacity="1" stop-color="rgb(100%, 85.267639%, 29.28772%)" offset="0.375"/><stop stop-opacity="1" stop-color="rgb(100%, 85.009766%, 28.990173%)" offset="0.390625"/><stop stop-opacity="1" stop-color="rgb(100%, 84.751892%, 28.694153%)" offset="0.40625"/><stop stop-opacity="1" stop-color="rgb(100%, 84.494019%, 28.396606%)" offset="0.421875"/><stop stop-opacity="1" stop-color="rgb(100%, 84.236145%, 28.100586%)" offset="0.4375"/><stop stop-opacity="1" stop-color="rgb(100%, 83.978271%, 27.80304%)" offset="0.453125"/><stop stop-opacity="1" stop-color="rgb(100%, 83.720398%, 27.507019%)" offset="0.46875"/><stop stop-opacity="1" stop-color="rgb(100%, 83.460999%, 27.209473%)" offset="0.482837"/><stop stop-opacity="1" stop-color="rgb(100%, 83.332825%, 27.061462%)" offset="0.484375"/><stop stop-opacity="1" stop-color="rgb(100%, 83.203125%, 26.911926%)" offset="0.5"/><stop stop-opacity="1" stop-color="rgb(100%, 82.945251%, 26.615906%)" offset="0.515625"/><stop stop-opacity="1" stop-color="rgb(100%, 82.687378%, 26.318359%)" offset="0.517163"/><stop stop-opacity="1" stop-color="rgb(100%, 82.559204%, 26.170349%)" offset="0.53125"/><stop stop-opacity="1" stop-color="rgb(100%, 82.429504%, 26.022339%)" offset="0.546875"/><stop stop-opacity="1" stop-color="rgb(100%, 82.171631%, 25.724792%)" offset="0.5625"/><stop stop-opacity="1" stop-color="rgb(100%, 81.913757%, 25.428772%)" offset="0.578125"/><stop stop-opacity="1" stop-color="rgb(100%, 81.655884%, 25.131226%)" offset="0.59375"/><stop stop-opacity="1" stop-color="rgb(100%, 81.39801%, 24.835205%)" offset="0.609375"/><stop stop-opacity="1" stop-color="rgb(100%, 81.138611%, 24.537659%)" offset="0.625"/><stop stop-opacity="1" stop-color="rgb(100%, 80.880737%, 24.240112%)" offset="0.640625"/><stop stop-opacity="1" stop-color="rgb(100%, 80.622864%, 23.944092%)" offset="0.65625"/><stop stop-opacity="1" stop-color="rgb(100%, 80.36499%, 23.646545%)" offset="0.671875"/><stop stop-opacity="1" stop-color="rgb(100%, 80.107117%, 23.350525%)" offset="0.6875"/><stop stop-opacity="1" stop-color="rgb(100%, 79.849243%, 23.052979%)" offset="0.703125"/><stop stop-opacity="1" stop-color="rgb(100%, 79.59137%, 22.756958%)" offset="0.71875"/><stop stop-opacity="1" stop-color="rgb(100%, 79.333496%, 22.459412%)" offset="0.734375"/><stop stop-opacity="1" stop-color="rgb(100%, 79.075623%, 22.163391%)" offset="0.75"/><stop stop-opacity="1" stop-color="rgb(100%, 78.816223%, 21.865845%)" offset="0.765625"/><stop stop-opacity="1" stop-color="rgb(100%, 78.55835%, 21.568298%)" offset="0.78125"/><stop stop-opacity="1" stop-color="rgb(100%, 78.300476%, 21.272278%)" offset="0.796875"/><stop stop-opacity="1" stop-color="rgb(100%, 78.042603%, 20.974731%)" offset="0.8125"/><stop stop-opacity="1" stop-color="rgb(100%, 77.784729%, 20.678711%)" offset="0.828125"/><stop stop-opacity="1" stop-color="rgb(100%, 77.526855%, 20.381165%)" offset="0.84375"/><stop stop-opacity="1" stop-color="rgb(100%, 77.268982%, 20.085144%)" offset="0.859375"/><stop stop-opacity="1" stop-color="rgb(100%, 77.011108%, 19.787598%)" offset="0.875"/><stop stop-opacity="1" stop-color="rgb(100%, 76.753235%, 19.491577%)" offset="0.890625"/><stop stop-opacity="1" stop-color="rgb(100%, 76.560974%, 19.270325%)" offset="0.90625"/><stop stop-opacity="1" stop-color="rgb(100%, 76.499939%, 19.198608%)" offset="0.9375"/><stop stop-opacity="1" stop-color="rgb(100%, 76.499939%, 19.198608%)" offset="1"/></linearGradient></defs><g clip-path="url(#f7486ba9b7)"><path fill="#00d8ff" d="M 113.238281 56.566406 C 112.175781 56.195312 111.070312 55.847656 109.933594 55.519531 C 110.121094 54.753906 110.292969 54 110.445312 53.257812 C 112.945312 41.074219 111.3125 31.261719 105.722656 28.03125 C 100.359375 24.933594 91.59375 28.164062 82.738281 35.886719 C 81.886719 36.628906 81.03125 37.414062 80.179688 38.238281 C 79.609375 37.695312 79.042969 37.167969 78.476562 36.664062 C 69.199219 28.40625 59.894531 24.925781 54.3125 28.164062 C 48.957031 31.273438 47.371094 40.5 49.625 52.042969 C 49.839844 53.160156 50.097656 54.296875 50.382812 55.457031 C 49.066406 55.832031 47.796875 56.230469 46.582031 56.65625 C 35.699219 60.457031 28.753906 66.414062 28.753906 72.59375 C 28.753906 78.976562 36.210938 85.382812 47.542969 89.261719 C 48.4375 89.570312 49.367188 89.859375 50.320312 90.132812 C 50.011719 91.382812 49.742188 92.609375 49.515625 93.808594 C 47.367188 105.15625 49.042969 114.164062 54.386719 117.25 C 59.902344 120.4375 69.160156 117.160156 78.175781 109.261719 C 78.890625 108.640625 79.605469 107.976562 80.320312 107.285156 C 81.253906 108.175781 82.179688 109.027344 83.097656 109.820312 C 91.832031 117.351562 100.460938 120.394531 105.792969 117.300781 C 111.304688 114.101562 113.097656 104.421875 110.769531 92.652344 C 110.59375 91.75 110.386719 90.832031 110.15625 89.898438 C 110.808594 89.707031 111.445312 89.503906 112.066406 89.300781 C 123.847656 85.386719 131.511719 79.066406 131.511719 72.59375 C 131.511719 66.390625 124.339844 60.394531 113.238281 56.566406 Z M 110.6875 85.125 C 110.125 85.308594 109.546875 85.488281 108.960938 85.664062 C 107.660156 81.539062 105.90625 77.148438 103.753906 72.617188 C 105.804688 68.191406 107.492188 63.859375 108.757812 59.757812 C 109.808594 60.0625 110.828125 60.386719 111.8125 60.726562 C 121.320312 64.007812 127.121094 68.859375 127.121094 72.59375 C 127.121094 76.574219 120.859375 81.746094 110.6875 85.125 Z M 106.464844 93.503906 C 107.496094 98.710938 107.640625 103.417969 106.957031 107.097656 C 106.347656 110.40625 105.117188 112.609375 103.59375 113.492188 C 100.355469 115.371094 93.429688 112.929688 85.964844 106.488281 C 85.105469 105.746094 84.242188 104.957031 83.378906 104.125 C 86.273438 100.949219 89.167969 97.261719 91.992188 93.164062 C 96.957031 92.722656 101.652344 92 105.910156 91.015625 C 106.117188 91.863281 106.304688 92.691406 106.464844 93.503906 Z M 63.789062 113.164062 C 60.625 114.289062 58.101562 114.320312 56.578125 113.4375 C 53.339844 111.5625 51.992188 104.332031 53.828125 94.628906 C 54.039062 93.519531 54.289062 92.378906 54.578125 91.210938 C 58.789062 92.144531 63.449219 92.816406 68.425781 93.21875 C 71.269531 97.230469 74.25 100.914062 77.246094 104.140625 C 76.59375 104.777344 75.9375 105.378906 75.289062 105.949219 C 71.304688 109.445312 67.308594 111.921875 63.789062 113.164062 Z M 48.964844 85.101562 C 43.953125 83.382812 39.816406 81.152344 36.980469 78.714844 C 34.429688 76.53125 33.144531 74.359375 33.144531 72.59375 C 33.144531 68.847656 38.722656 64.0625 48.027344 60.808594 C 49.15625 60.414062 50.335938 60.042969 51.5625 59.695312 C 52.851562 63.886719 54.535156 68.269531 56.570312 72.699219 C 54.511719 77.199219 52.800781 81.652344 51.5 85.894531 C 50.625 85.644531 49.78125 85.378906 48.964844 85.101562 Z M 53.933594 51.199219 C 52.003906 41.308594 53.285156 33.84375 56.511719 31.972656 C 59.949219 29.976562 67.550781 32.820312 75.5625 39.953125 C 76.074219 40.410156 76.589844 40.886719 77.105469 41.378906 C 74.121094 44.59375 71.171875 48.25 68.351562 52.238281 C 63.519531 52.6875 58.894531 53.40625 54.640625 54.371094 C 54.371094 53.292969 54.136719 52.234375 53.933594 51.199219 Z M 98.253906 62.167969 C 97.242188 60.410156 96.195312 58.691406 95.132812 57.019531 C 98.414062 57.433594 101.550781 57.984375 104.5 58.660156 C 103.617188 61.503906 102.515625 64.480469 101.214844 67.53125 C 100.28125 65.753906 99.296875 63.96875 98.253906 62.167969 Z M 80.179688 44.523438 C 82.207031 46.722656 84.234375 49.175781 86.230469 51.839844 C 84.21875 51.746094 82.183594 51.695312 80.132812 51.695312 C 78.101562 51.695312 76.082031 51.742188 74.082031 51.835938 C 76.078125 49.199219 78.125 46.746094 80.179688 44.523438 Z M 61.988281 62.199219 C 60.972656 63.964844 60.007812 65.742188 59.089844 67.527344 C 57.8125 64.488281 56.71875 61.5 55.824219 58.613281 C 58.757812 57.957031 61.882812 57.417969 65.140625 57.011719 C 64.0625 58.699219 63.007812 60.429688 61.988281 62.199219 Z M 65.234375 88.492188 C 61.867188 88.117188 58.695312 87.605469 55.761719 86.964844 C 56.671875 84.03125 57.789062 80.980469 59.09375 77.875 C 60.015625 79.65625 60.984375 81.433594 62.007812 83.203125 C 63.046875 85.007812 64.128906 86.769531 65.234375 88.492188 Z M 80.300781 100.976562 C 78.222656 98.726562 76.148438 96.234375 74.121094 93.558594 C 76.085938 93.636719 78.09375 93.675781 80.132812 93.675781 C 82.226562 93.675781 84.300781 93.628906 86.335938 93.539062 C 84.335938 96.265625 82.3125 98.757812 80.300781 100.976562 Z M 101.253906 77.71875 C 102.628906 80.855469 103.785156 83.890625 104.707031 86.777344 C 101.726562 87.457031 98.507812 88.003906 95.121094 88.414062 C 96.1875 86.722656 97.242188 84.972656 98.277344 83.171875 C 99.324219 81.355469 100.316406 79.53125 101.253906 77.71875 Z M 94.46875 80.976562 C 92.863281 83.769531 91.214844 86.429688 89.542969 88.945312 C 86.496094 89.164062 83.34375 89.277344 80.132812 89.277344 C 76.933594 89.277344 73.824219 89.179688 70.828125 88.980469 C 69.085938 86.433594 67.402344 83.765625 65.804688 81 C 64.214844 78.246094 62.75 75.464844 61.421875 72.699219 C 62.75 69.933594 64.210938 67.148438 65.792969 64.398438 C 67.378906 61.640625 69.050781 58.980469 70.777344 56.449219 C 73.832031 56.214844 76.964844 56.09375 80.132812 56.09375 C 83.316406 56.09375 86.449219 56.21875 89.503906 56.449219 C 91.207031 58.964844 92.863281 61.617188 94.457031 64.375 C 96.066406 67.164062 97.550781 69.929688 98.886719 72.640625 C 97.554688 75.394531 96.078125 78.1875 94.46875 80.976562 Z M 103.527344 31.839844 C 106.96875 33.828125 108.308594 41.851562 106.144531 52.371094 C 106.007812 53.039062 105.851562 53.722656 105.683594 54.417969 C 101.417969 53.429688 96.789062 52.699219 91.945312 52.242188 C 89.121094 48.210938 86.195312 44.546875 83.253906 41.375 C 84.046875 40.613281 84.835938 39.886719 85.621094 39.203125 C 93.207031 32.585938 100.300781 29.972656 103.527344 31.839844 Z M 80.132812 63.398438 C 85.199219 63.398438 89.308594 67.511719 89.308594 72.59375 C 89.308594 77.671875 85.199219 81.792969 80.132812 81.792969 C 75.066406 81.792969 70.957031 77.671875 70.957031 72.59375 C 70.957031 67.511719 75.066406 63.398438 80.132812 63.398438 Z M 80.132812 63.398438 " fill-opacity="1" fill-rule="nonzero"/></g><g clip-path="url(#07f878eeed)"><path fill="#000000" d="M 193.40625 57.597656 L 215.070312 57.597656 L 215.070312 59.324219 L 195.390625 59.324219 L 195.390625 72.300781 L 213.898438 72.300781 L 213.898438 74.027344 L 195.390625 74.027344 L 195.390625 88.273438 L 215.296875 88.273438 L 215.296875 89.996094 L 193.40625 89.996094 Z M 217.011719 57.597656 L 219.316406 57.597656 L 229.515625 71.847656 L 239.941406 57.597656 L 254.121094 39.5 L 230.824219 73.34375 L 242.832031 89.996094 L 240.4375 89.996094 L 229.515625 74.839844 L 218.546875 89.996094 L 216.199219 89.996094 L 228.296875 73.34375 Z M 243.6875 59.324219 L 243.6875 57.597656 L 268.378906 57.597656 L 268.378906 59.324219 L 257.003906 59.324219 L 257.003906 89.996094 L 255.015625 89.996094 L 255.015625 59.324219 Z M 166.304688 57.597656 L 168.785156 57.597656 L 203.015625 108.890625 L 188.871094 90 L 168.382812 60.050781 L 168.289062 90 L 166.304688 90 Z M 268.175781 87.753906 C 267.769531 87.753906 267.464844 87.4375 267.464844 87.03125 C 267.464844 86.625 267.769531 86.308594 268.175781 86.308594 C 268.585938 86.308594 268.886719 86.625 268.886719 87.03125 C 268.886719 87.4375 268.585938 87.753906 268.175781 87.753906 Z M 270.128906 85.851562 L 271.191406 85.851562 C 271.203125 86.429688 271.625 86.816406 272.242188 86.816406 C 272.933594 86.816406 273.324219 86.402344 273.324219 85.621094 L 273.324219 80.683594 L 274.40625 80.683594 L 274.40625 85.625 C 274.40625 87.03125 273.59375 87.839844 272.253906 87.839844 C 270.992188 87.839844 270.128906 87.054688 270.128906 85.851562 Z M 275.824219 85.789062 L 276.894531 85.789062 C 276.984375 86.457031 277.632812 86.875 278.566406 86.875 C 279.433594 86.875 280.074219 86.425781 280.074219 85.804688 C 280.074219 85.273438 279.667969 84.953125 278.746094 84.734375 L 277.847656 84.515625 C 276.585938 84.222656 276.011719 83.613281 276.011719 82.585938 C 276.011719 81.339844 277.027344 80.511719 278.546875 80.511719 C 279.960938 80.511719 280.996094 81.339844 281.058594 82.515625 L 280.003906 82.515625 C 279.902344 81.871094 279.34375 81.46875 278.53125 81.46875 C 277.675781 81.46875 277.105469 81.882812 277.105469 82.511719 C 277.105469 83.011719 277.472656 83.296875 278.382812 83.511719 L 279.148438 83.699219 C 280.578125 84.035156 281.167969 84.617188 281.167969 85.664062 C 281.167969 87 280.136719 87.839844 278.484375 87.839844 C 276.9375 87.839844 275.898438 87.042969 275.824219 85.789062 Z M 275.824219 85.789062 " fill-opacity="1" fill-rule="nonzero"/></g><g clip-path="url(#fb71589a5c)"><path fill="#01ec64" d="M 364.933594 38.199219 C 361.046875 33.609375 357.699219 28.945312 357.015625 27.976562 C 357 27.960938 356.980469 27.945312 356.960938 27.9375 C 356.9375 27.925781 356.914062 27.921875 356.890625 27.921875 C 356.867188 27.921875 356.84375 27.925781 356.820312 27.9375 C 356.800781 27.945312 356.78125 27.960938 356.765625 27.976562 C 356.082031 28.945312 352.734375 33.609375 348.847656 38.199219 C 315.492188 80.558594 354.101562 109.144531 354.101562 109.144531 L 354.425781 109.359375 C 354.714844 113.769531 355.433594 120.121094 355.433594 120.121094 L 358.3125 120.121094 C 358.3125 120.121094 359.03125 113.804688 359.320312 109.359375 L 359.644531 109.109375 C 359.679688 109.144531 398.289062 80.558594 364.933594 38.199219 Z M 356.871094 108.496094 C 356.871094 108.496094 355.144531 107.027344 354.675781 106.273438 L 354.675781 106.203125 L 356.765625 60.078125 C 356.765625 59.933594 356.980469 59.933594 356.980469 60.078125 L 359.066406 106.203125 L 359.066406 106.273438 C 358.601562 107.027344 356.871094 108.496094 356.871094 108.496094 Z M 356.871094 108.496094 " fill-opacity="1" fill-rule="nonzero"/></g><g clip-path="url(#b979938cd5)"><g clip-path="url(#bae305465a)"><path fill="url(#7ae547d747)" d="M 432.582031 33.230469 L 432.582031 95.277344 L 495.070312 95.277344 L 495.070312 33.230469 Z M 432.582031 33.230469 " fill-rule="nonzero"/></g></g><g clip-path="url(#7234705ac8)"><g clip-path="url(#fdbb4761ea)"><path fill="url(#bbd5d8da54)" d="M 452.132812 53.226562 L 452.132812 115.285156 L 514.621094 115.285156 L 514.621094 53.226562 Z M 452.132812 53.226562 " fill-rule="nonzero"/></g></g></svg>