<svg xmlns="http://www.w3.org/2000/svg" xmlns:xlink="http://www.w3.org/1999/xlink" width="725" zoomAndPan="magnify" viewBox="0 0 543.75 146.249994" height="195" preserveAspectRatio="xMidYMid meet" version="1.0"><defs><clipPath id="d448d2015b"><path d="M 36.433594 28.789062 L 118.515625 28.789062 L 118.515625 110.871094 L 36.433594 110.871094 Z M 36.433594 28.789062 " clip-rule="nonzero"/></clipPath><clipPath id="688807f1d5"><path d="M 142.144531 28.789062 L 230.195312 28.789062 L 230.195312 116.839844 L 142.144531 116.839844 Z M 142.144531 28.789062 " clip-rule="nonzero"/></clipPath><clipPath id="0260398e06"><path d="M 407 65 L 437 65 L 437 98.542969 L 407 98.542969 Z M 407 65 " clip-rule="nonzero"/></clipPath><clipPath id="4b87c7de1b"><path d="M 254 47.058594 L 398 47.058594 L 398 98.542969 L 254 98.542969 Z M 254 47.058594 " clip-rule="nonzero"/></clipPath><clipPath id="bd2861588c"><path d="M 293 65 L 387 65 L 387 98.542969 L 293 98.542969 Z M 293 65 " clip-rule="nonzero"/></clipPath><clipPath id="9a8ec0cdcd"><path d="M 461.351562 43.652344 L 492 43.652344 L 492 89 L 461.351562 89 Z M 461.351562 43.652344 " clip-rule="nonzero"/></clipPath><clipPath id="48395f9957"><path d="M 488 58 L 506.867188 58 L 506.867188 101.851562 L 488 101.851562 Z M 488 58 " clip-rule="nonzero"/></clipPath><clipPath id="f85d4894eb"><path d="M 496 43.652344 L 506 43.652344 L 506 54 L 496 54 Z M 496 43.652344 " clip-rule="nonzero"/></clipPath></defs><g clip-path="url(#d448d2015b)"><path fill="#007acc" d="M 97.996094 28.789062 L 97.996094 99.328125 L 36.433594 90.144531 L 97.996094 110.871094 L 118.515625 102.328125 L 118.515625 37.320312 Z M 76.449219 40.792969 L 57.597656 59.441406 L 46.246094 50.886719 L 41.566406 52.453125 L 53.109375 63.867188 L 41.566406 75.28125 L 46.246094 76.84375 L 57.597656 68.292969 L 76.449219 86.925781 L 87.734375 82.140625 L 87.734375 45.589844 Z M 76.449219 54.09375 L 76.449219 73.675781 L 63.496094 63.867188 Z M 76.449219 54.09375 " fill-opacity="1" fill-rule="nonzero"/></g><g clip-path="url(#688807f1d5)"><path fill="#f03c2e" d="M 228.53125 68.894531 L 190.089844 30.453125 C 189.828125 30.1875 189.539062 29.953125 189.230469 29.746094 C 188.921875 29.539062 188.59375 29.367188 188.25 29.222656 C 187.90625 29.082031 187.550781 28.972656 187.1875 28.902344 C 186.820312 28.828125 186.453125 28.792969 186.082031 28.792969 C 185.707031 28.792969 185.339844 28.828125 184.976562 28.902344 C 184.609375 28.972656 184.253906 29.082031 183.910156 29.222656 C 183.566406 29.367188 183.242188 29.539062 182.929688 29.746094 C 182.621094 29.953125 182.335938 30.1875 182.070312 30.453125 L 174.09375 38.433594 L 184.21875 48.558594 C 186.574219 47.730469 189.269531 48.296875 191.148438 50.171875 C 191.59375 50.621094 191.96875 51.121094 192.277344 51.671875 C 192.582031 52.226562 192.804688 52.8125 192.945312 53.429688 C 193.085938 54.042969 193.140625 54.667969 193.105469 55.300781 C 193.074219 55.929688 192.953125 56.542969 192.746094 57.140625 L 202.503906 66.902344 C 204.867188 66.085938 207.589844 66.613281 209.472656 68.503906 C 209.789062 68.816406 210.066406 69.15625 210.3125 69.527344 C 210.5625 69.894531 210.769531 70.285156 210.9375 70.691406 C 211.109375 71.101562 211.234375 71.523438 211.324219 71.960938 C 211.410156 72.394531 211.453125 72.832031 211.453125 73.277344 C 211.453125 73.71875 211.410156 74.160156 211.324219 74.59375 C 211.238281 75.027344 211.109375 75.449219 210.9375 75.859375 C 210.769531 76.269531 210.5625 76.65625 210.316406 77.027344 C 210.070312 77.394531 209.789062 77.734375 209.476562 78.050781 C 209.160156 78.363281 208.820312 78.640625 208.453125 78.886719 C 208.082031 79.132812 207.695312 79.34375 207.285156 79.511719 C 206.875 79.679688 206.453125 79.808594 206.019531 79.894531 C 205.585938 79.980469 205.144531 80.023438 204.703125 80.023438 C 204.257812 80.023438 203.820312 79.980469 203.386719 79.894531 C 202.949219 79.808594 202.527344 79.679688 202.117188 79.511719 C 201.710938 79.339844 201.320312 79.132812 200.953125 78.886719 C 200.582031 78.640625 200.242188 78.359375 199.929688 78.046875 C 197.949219 76.0625 197.457031 73.148438 198.460938 70.707031 L 189.359375 61.605469 L 189.359375 85.558594 C 190.023438 85.886719 190.621094 86.3125 191.148438 86.832031 C 191.460938 87.148438 191.738281 87.488281 191.984375 87.855469 C 192.230469 88.226562 192.441406 88.613281 192.609375 89.023438 C 192.777344 89.433594 192.90625 89.855469 192.992188 90.289062 C 193.078125 90.722656 193.121094 91.160156 193.121094 91.605469 C 193.121094 92.046875 193.078125 92.488281 192.992188 92.921875 C 192.90625 93.355469 192.777344 93.777344 192.609375 94.1875 C 192.441406 94.597656 192.230469 94.984375 191.984375 95.355469 C 191.738281 95.722656 191.460938 96.0625 191.148438 96.375 C 190.832031 96.6875 190.492188 96.96875 190.125 97.214844 C 189.753906 97.460938 189.367188 97.667969 188.957031 97.839844 C 188.546875 98.007812 188.125 98.136719 187.691406 98.222656 C 187.257812 98.308594 186.820312 98.351562 186.375 98.351562 C 185.933594 98.351562 185.492188 98.308594 185.058594 98.222656 C 184.625 98.136719 184.203125 98.007812 183.792969 97.839844 C 183.382812 97.667969 182.996094 97.460938 182.625 97.214844 C 182.257812 96.96875 181.917969 96.6875 181.605469 96.375 C 181.289062 96.0625 181.011719 95.722656 180.765625 95.355469 C 180.519531 94.984375 180.308594 94.597656 180.140625 94.1875 C 179.96875 93.777344 179.84375 93.355469 179.753906 92.921875 C 179.667969 92.488281 179.625 92.046875 179.625 91.605469 C 179.625 91.160156 179.667969 90.722656 179.753906 90.289062 C 179.84375 89.855469 179.96875 89.433594 180.140625 89.023438 C 180.308594 88.613281 180.519531 88.222656 180.765625 87.855469 C 181.011719 87.488281 181.289062 87.148438 181.605469 86.832031 C 182.257812 86.183594 182.980469 85.691406 183.8125 85.363281 L 183.8125 61.1875 C 183.011719 60.855469 182.257812 60.371094 181.605469 59.714844 C 181.128906 59.242188 180.734375 58.710938 180.421875 58.121094 C 180.105469 57.527344 179.882812 56.90625 179.753906 56.246094 C 179.625 55.589844 179.59375 54.929688 179.660156 54.261719 C 179.730469 53.597656 179.894531 52.957031 180.152344 52.339844 L 170.164062 42.355469 L 143.804688 68.6875 C 143.539062 68.949219 143.304688 69.238281 143.097656 69.546875 C 142.890625 69.855469 142.714844 70.183594 142.574219 70.527344 C 142.429688 70.871094 142.324219 71.226562 142.25 71.589844 C 142.179688 71.957031 142.140625 72.324219 142.140625 72.699219 C 142.140625 73.070312 142.179688 73.4375 142.25 73.804688 C 142.324219 74.167969 142.429688 74.523438 142.574219 74.867188 C 142.714844 75.210938 142.890625 75.539062 143.097656 75.847656 C 143.304688 76.160156 143.539062 76.445312 143.804688 76.707031 L 182.25 115.148438 C 182.511719 115.410156 182.796875 115.644531 183.105469 115.851562 C 183.417969 116.058594 183.742188 116.234375 184.085938 116.375 C 184.429688 116.519531 184.785156 116.625 185.152344 116.699219 C 185.515625 116.773438 185.886719 116.808594 186.257812 116.808594 C 186.628906 116.808594 187 116.773438 187.363281 116.699219 C 187.730469 116.625 188.082031 116.519531 188.425781 116.375 C 188.769531 116.234375 189.097656 116.058594 189.40625 115.851562 C 189.714844 115.644531 190.003906 115.410156 190.265625 115.148438 L 228.53125 76.941406 C 228.796875 76.679688 229.03125 76.390625 229.238281 76.082031 C 229.445312 75.773438 229.621094 75.445312 229.761719 75.101562 C 229.90625 74.757812 230.011719 74.402344 230.085938 74.039062 C 230.15625 73.671875 230.195312 73.304688 230.195312 72.933594 C 230.195312 72.558594 230.15625 72.191406 230.085938 71.824219 C 230.011719 71.460938 229.90625 71.105469 229.761719 70.761719 C 229.621094 70.417969 229.445312 70.089844 229.238281 69.78125 C 229.03125 69.472656 228.796875 69.183594 228.53125 68.921875 " fill-opacity="1" fill-rule="nonzero"/></g><g clip-path="url(#0260398e06)"><path fill="#83cd29" d="M 421.917969 65.28125 C 421.476562 65.28125 421.046875 65.375 420.667969 65.589844 L 408.632812 72.550781 C 407.851562 73 407.378906 73.851562 407.378906 74.753906 L 407.378906 88.65625 C 407.378906 89.558594 407.851562 90.40625 408.632812 90.859375 L 411.773438 92.671875 C 413.300781 93.425781 413.863281 93.414062 414.558594 93.414062 C 416.820312 93.414062 418.113281 92.039062 418.113281 89.652344 L 418.113281 75.933594 C 418.113281 75.742188 417.945312 75.601562 417.753906 75.601562 L 416.246094 75.601562 C 416.054688 75.601562 415.890625 75.746094 415.890625 75.933594 L 415.890625 89.65625 C 415.890625 90.714844 414.789062 91.78125 413 90.886719 L 409.734375 88.964844 C 409.617188 88.902344 409.527344 88.789062 409.527344 88.660156 L 409.527344 74.757812 C 409.527344 74.625 409.617188 74.492188 409.734375 74.425781 L 421.746094 67.484375 C 421.855469 67.421875 421.992188 67.421875 422.101562 67.484375 L 434.113281 74.425781 C 434.226562 74.492188 434.316406 74.621094 434.316406 74.757812 L 434.316406 88.660156 C 434.316406 88.792969 434.25 88.925781 434.136719 88.992188 L 422.101562 95.929688 C 421.996094 95.992188 421.855469 95.992188 421.746094 95.929688 L 418.652344 94.085938 C 418.558594 94.03125 418.433594 94.035156 418.347656 94.085938 C 417.492188 94.570312 417.332031 94.628906 416.53125 94.90625 C 416.335938 94.976562 416.035156 95.082031 416.632812 95.417969 L 420.671875 97.800781 C 421.054688 98.023438 421.484375 98.136719 421.925781 98.136719 C 422.371094 98.136719 422.792969 98.027344 423.175781 97.800781 L 435.210938 90.863281 C 435.992188 90.410156 436.464844 89.566406 436.464844 88.664062 L 436.464844 74.761719 C 436.464844 73.859375 435.992188 73.011719 435.210938 72.558594 L 423.175781 65.59375 C 422.800781 65.378906 422.367188 65.289062 421.925781 65.289062 Z M 425.140625 75.214844 C 421.710938 75.214844 419.671875 76.675781 419.671875 79.105469 C 419.671875 81.738281 421.695312 82.46875 424.984375 82.792969 C 428.921875 83.179688 429.226562 83.757812 429.226562 84.535156 C 429.226562 85.878906 428.15625 86.453125 425.625 86.453125 C 422.445312 86.453125 421.746094 85.660156 421.511719 84.070312 C 421.484375 83.898438 421.351562 83.761719 421.179688 83.761719 L 419.617188 83.761719 C 419.519531 83.765625 419.433594 83.800781 419.367188 83.871094 C 419.296875 83.941406 419.261719 84.023438 419.257812 84.121094 C 419.257812 86.152344 420.359375 88.550781 425.621094 88.550781 C 429.429688 88.550781 431.625 87.054688 431.625 84.429688 C 431.625 81.832031 429.851562 81.128906 426.160156 80.640625 C 422.429688 80.140625 422.070312 79.902344 422.070312 79.027344 C 422.070312 78.304688 422.371094 77.335938 425.136719 77.335938 C 427.605469 77.335938 428.519531 77.871094 428.894531 79.539062 C 428.925781 79.695312 429.0625 79.824219 429.226562 79.824219 L 430.789062 79.824219 C 430.882812 79.824219 430.976562 79.761719 431.042969 79.695312 C 431.109375 79.621094 431.15625 79.539062 431.144531 79.4375 C 430.902344 76.566406 428.992188 75.214844 425.140625 75.214844 Z M 425.140625 75.214844 " fill-opacity="1" fill-rule="nonzero"/></g><g clip-path="url(#4b87c7de1b)"><path fill="#404137" d="M 351.160156 47.058594 C 351.023438 47.058594 350.894531 47.09375 350.777344 47.160156 C 350.523438 47.308594 350.394531 47.53125 350.394531 47.828125 L 350.394531 67.410156 C 350.394531 67.601562 350.304688 67.777344 350.136719 67.871094 C 349.960938 67.976562 349.78125 67.976562 349.601562 67.871094 L 346.40625 66.027344 C 346.171875 65.890625 345.914062 65.824219 345.640625 65.824219 C 345.367188 65.824219 345.113281 65.890625 344.875 66.027344 L 332.125 73.402344 C 331.648438 73.675781 331.355469 74.207031 331.355469 74.757812 L 331.355469 89.503906 C 331.355469 89.78125 331.425781 90.035156 331.5625 90.273438 C 331.699219 90.511719 331.886719 90.699219 332.125 90.835938 L 344.875 98.210938 C 345.113281 98.347656 345.367188 98.414062 345.640625 98.414062 C 345.914062 98.414062 346.171875 98.347656 346.410156 98.210938 L 359.160156 90.835938 C 359.398438 90.699219 359.585938 90.511719 359.722656 90.273438 C 359.859375 90.035156 359.925781 89.78125 359.925781 89.503906 L 359.925781 52.742188 C 359.925781 52.183594 359.621094 51.65625 359.132812 51.386719 L 351.542969 47.132812 C 351.425781 47.066406 351.292969 47.054688 351.160156 47.054688 Z M 269.132812 65.464844 C 268.890625 65.476562 268.660156 65.515625 268.441406 65.644531 L 255.691406 73.015625 C 255.453125 73.15625 255.265625 73.339844 255.128906 73.578125 C 254.992188 73.816406 254.925781 74.074219 254.925781 74.347656 L 254.953125 94.140625 C 254.953125 94.414062 255.09375 94.667969 255.335938 94.804688 C 255.570312 94.945312 255.867188 94.945312 256.101562 94.804688 L 263.664062 90.453125 C 264.144531 90.167969 264.457031 89.671875 264.457031 89.121094 L 264.457031 79.878906 C 264.457031 79.328125 264.746094 78.820312 265.222656 78.546875 L 268.445312 76.679688 C 268.679688 76.539062 268.9375 76.472656 269.210938 76.472656 C 269.484375 76.472656 269.742188 76.539062 269.976562 76.679688 L 273.195312 78.546875 C 273.671875 78.820312 273.960938 79.324219 273.960938 79.875 L 273.960938 89.117188 C 273.960938 89.667969 274.28125 90.167969 274.753906 90.449219 L 282.316406 94.800781 C 282.554688 94.945312 282.847656 94.945312 283.085938 94.800781 C 283.320312 94.667969 283.46875 94.410156 283.46875 94.136719 L 283.492188 74.347656 C 283.496094 74.074219 283.425781 73.816406 283.289062 73.578125 C 283.152344 73.339844 282.964844 73.152344 282.726562 73.015625 L 269.976562 65.644531 C 269.761719 65.519531 269.53125 65.476562 269.285156 65.464844 Z M 383.714844 65.644531 C 383.441406 65.644531 383.183594 65.710938 382.949219 65.847656 L 370.195312 73.222656 C 369.722656 73.5 369.429688 74.003906 369.429688 74.554688 L 369.429688 89.300781 C 369.429688 89.855469 369.742188 90.355469 370.222656 90.628906 L 382.871094 97.855469 C 383.335938 98.121094 383.90625 98.140625 384.378906 97.878906 L 392.042969 93.601562 C 392.289062 93.46875 392.453125 93.214844 392.453125 92.9375 C 392.453125 92.660156 392.308594 92.410156 392.070312 92.273438 L 379.242188 84.898438 C 379 84.761719 378.832031 84.484375 378.832031 84.207031 L 378.832031 79.597656 C 378.832031 79.320312 379.003906 79.066406 379.242188 78.929688 L 383.226562 76.625 C 383.464844 76.488281 383.753906 76.488281 383.996094 76.625 L 387.988281 78.929688 C 388.246094 79.078125 388.375 79.300781 388.375 79.597656 L 388.375 83.230469 C 388.371094 83.527344 388.5 83.75 388.757812 83.898438 C 388.996094 84.035156 389.285156 84.035156 389.523438 83.898438 L 397.164062 79.441406 C 397.636719 79.167969 397.929688 78.660156 397.929688 78.113281 L 397.929688 74.554688 C 397.929688 74.277344 397.863281 74.023438 397.726562 73.785156 C 397.585938 73.546875 397.402344 73.359375 397.164062 73.222656 L 384.488281 65.847656 C 384.25 65.710938 383.996094 65.644531 383.722656 65.644531 Z M 345.589844 76.652344 C 345.660156 76.652344 345.730469 76.671875 345.792969 76.703125 L 350.164062 79.238281 C 350.28125 79.308594 350.367188 79.433594 350.367188 79.570312 L 350.367188 84.640625 C 350.367188 84.777344 350.28125 84.90625 350.164062 84.972656 L 345.792969 87.507812 C 345.675781 87.574219 345.527344 87.574219 345.410156 87.507812 L 341.039062 84.972656 C 340.921875 84.90625 340.835938 84.777344 340.835938 84.640625 L 340.835938 79.574219 C 340.835938 79.4375 340.921875 79.308594 341.039062 79.242188 L 345.410156 76.707031 C 345.46875 76.671875 345.523438 76.65625 345.589844 76.65625 Z M 345.589844 76.652344 " fill-opacity="1" fill-rule="nonzero"/></g><g clip-path="url(#bd2861588c)"><path fill="#83cd29" d="M 307.4375 65.566406 C 307.164062 65.566406 306.90625 65.636719 306.667969 65.773438 L 293.917969 73.121094 C 293.441406 73.394531 293.152344 73.925781 293.152344 74.476562 L 293.152344 89.222656 C 293.152344 89.496094 293.21875 89.753906 293.355469 89.992188 C 293.492188 90.230469 293.679688 90.417969 293.917969 90.554688 L 306.667969 97.925781 C 306.90625 98.066406 307.164062 98.132812 307.4375 98.132812 C 307.710938 98.132812 307.964844 98.066406 308.203125 97.925781 L 320.953125 90.554688 C 321.191406 90.417969 321.378906 90.230469 321.515625 89.992188 C 321.652344 89.753906 321.722656 89.496094 321.722656 89.222656 L 321.722656 74.476562 C 321.722656 73.925781 321.429688 73.394531 320.953125 73.121094 L 308.203125 65.773438 C 307.964844 65.636719 307.710938 65.566406 307.433594 65.566406 Z M 383.691406 78.726562 C 383.640625 78.726562 383.582031 78.726562 383.535156 78.75 L 381.082031 80.183594 C 380.984375 80.242188 380.933594 80.328125 380.929688 80.441406 L 380.929688 83.257812 C 380.929688 83.363281 380.992188 83.460938 381.082031 83.515625 L 383.535156 84.921875 C 383.628906 84.980469 383.722656 84.980469 383.816406 84.921875 L 386.269531 83.515625 C 386.359375 83.460938 386.421875 83.363281 386.421875 83.257812 L 386.421875 80.441406 C 386.421875 80.335938 386.363281 80.238281 386.269531 80.183594 L 383.816406 78.75 C 383.773438 78.722656 383.742188 78.726562 383.6875 78.726562 Z M 383.691406 78.726562 " fill-opacity="1" fill-rule="nonzero"/></g><g clip-path="url(#9a8ec0cdcd)"><path fill="#2ba977" d="M 481.824219 43.652344 L 491.316406 43.652344 L 491.316406 87.328125 C 486.457031 88.25 482.875 88.613281 479.003906 88.613281 C 467.414062 88.601562 461.378906 83.402344 461.378906 73.414062 C 461.378906 63.792969 467.78125 57.550781 477.699219 57.550781 C 479.238281 57.550781 480.410156 57.671875 481.824219 58.035156 Z M 482.160156 65.90625 C 481.046875 65.542969 480.132812 65.421875 478.960938 65.421875 C 474.160156 65.421875 471.386719 68.359375 471.386719 73.511719 C 471.386719 78.527344 474.035156 81.300781 478.898438 81.300781 C 479.949219 81.300781 480.804688 81.238281 482.160156 81.054688 Z M 482.160156 65.90625 " fill-opacity="1" fill-rule="nonzero"/></g><g clip-path="url(#48395f9957)"><path fill="#2ba977" d="M 506.835938 58.722656 L 506.835938 80.589844 C 506.835938 88.121094 506.273438 91.742188 504.625 94.863281 C 503.085938 97.867188 501.058594 99.761719 496.867188 101.851562 L 488.0625 97.683594 C 492.253906 95.730469 494.28125 94 495.574219 91.363281 C 496.929688 88.667969 497.359375 85.546875 497.359375 77.335938 L 497.359375 58.722656 Z M 506.835938 58.722656 " fill-opacity="1" fill-rule="nonzero"/></g><g clip-path="url(#f85d4894eb)"><path fill="#2ba977" d="M 496.402344 43.652344 L 505.894531 43.652344 L 505.894531 53.332031 L 496.402344 53.332031 Z M 496.402344 43.652344 " fill-opacity="1" fill-rule="nonzero"/></g></svg>